<svg xmlns="http://www.w3.org/2000/svg" width="19" height="15" viewBox="0 0 19 15">
    <g fill="#C0C5D2" fill-rule="nonzero">
        <path d="M9.911 11.277c-.987-.34-2.009-.383-2.311-1.277V8.75c.285-.14 1.1-1.097 1.186-1.845.05-.177.09-.81.09-.952 0-.78-.012-2.394.483-3.657-.173-.85-.625-1.564-1.593-1.658C7.506.213 6.843 0 5.98 0 2.528.059 2.175 2.42 2.868 5.134c-.135.076-.356.318-.3.748.103.802.456 1.006.68 1.022.085.75.9 1.707 1.185 1.846V10C3.8 11.875 0 10 0 15h7.6c0-2.217 1.26-3.173 2.311-3.723z"/>
        <path d="M8.867 15c0-3.125 3.166-2.5 3.8-4.192v-.797c-2.294 0-2.93-.932-2.93-.932 1.198-.983-1.068-7.829 3.012-7.829 0 0 .551-.625 1.263-.625 4.988 0 2.737 7.433 4.027 8.478 0 0-.534.9-2.839.9v.805C15.833 12.5 19 11.875 19 15H8.867z"/>
    </g>
</svg>
